<svg fill="#FFFFFF" xmlns="http://www.w3.org/2000/svg"  viewBox="0 0 64 64" width="64px" height="64px"><path d="M 19.925781 4.4589844 C 19.796875 4.4749531 19.670281 4.5169375 19.550781 4.5859375 C 19.072781 4.8619375 18.907594 5.4731719 19.183594 5.9511719 L 21.873047 10.609375 C 18.422305 13.348967 15.974304 17.411516 15.246094 22 L 48.820312 22 C 48.186567 17.305005 45.728211 13.207297 42.199219 10.486328 L 44.816406 5.9511719 C 45.092406 5.4731719 44.927219 4.8619375 44.449219 4.5859375 C 43.971219 4.3099375 43.359984 4.4731719 43.083984 4.9511719 L 40.533203 9.3691406 C 38.11257 7.9228488 35.318554 7.0613328 32.324219 7.0039062 C 29.109568 6.9424535 26.093966 7.8451485 23.509766 9.4433594 L 20.916016 4.9511719 C 20.709016 4.5926719 20.3125 4.4110781 19.925781 4.4589844 z M 24.5 14 C 25.328 14 26 14.672 26 15.5 C 26 16.328 25.328 17 24.5 17 C 23.672 17 23 16.328 23 15.5 C 23 14.672 23.672 14 24.5 14 z M 39.5 14 C 40.328 14 41 14.672 41 15.5 C 41 16.328 40.328 17 39.5 17 C 38.672 17 38 16.328 38 15.5 C 38 14.672 38.672 14 39.5 14 z M 15.039062 24.054688 C 15.027063 24.320688 15 24.583562 15 24.851562 L 15 45.90625 C 15 48.16625 16.791 50 19 50 L 22 50 L 22 56.5 C 22 57.881 23.119 59 24.5 59 C 25.881 59 27 57.881 27 56.5 L 27 50 L 37 50 L 37 56.5 C 37 57.881 38.119 59 39.5 59 C 40.881 59 42 57.881 42 56.5 L 42 50 L 45 50 C 47.209 50 49 48.16625 49 45.90625 L 49 24.947266 L 15.039062 24.054688 z M 9.5 25 C 8.119 25 7 26.119 7 27.5 L 7 35.5 C 7 36.881 8.119 38 9.5 38 C 10.881 38 12 36.881 12 35.5 L 12 27.5 C 12 26.119 10.881 25 9.5 25 z M 54.5 25 C 53.119 25 52 26.119 52 27.5 L 52 35.5 C 52 36.881 53.119 38 54.5 38 C 55.881 38 57 36.881 57 35.5 L 57 27.5 C 57 26.119 55.881 25 54.5 25 z"/></svg>